# xmcd CD database file
#
# Track frame offsets:
#	150
#	27644
#	53861
#	89687
#	118826
#	156336
#	204235
#	233173
#
# Disc length: 3467 seconds
#
# Revision: 0
# Processed by: cddbd v1.5.1PL2 Copyright (c) Steve Scherf et al.
# Submitted via: CDex 1.51
#
DISCID=6d0d8908
DTITLE=Gary Smulyan and Brass - Blue Suite
DYEAR=2000
DGENRE=Jazz
TTITLE0=Interlude Blue Suite
TTITLE1=Blues Culture
TTITLE2=Blues In My Neighbourhood
TTITLE3=Charleston Blue
TTITLE4=Blues Attitude
TTITLE5=Blue Speed
TTITLE6=Blues Gentility
TTITLE7=Blue Stomp
EXTD=YEAR: 2000
EXTT0=
EXTT1=
EXTT2=
EXTT3=
EXTT4=
EXTT5=
EXTT6=
EXTT7=
PLAYORDER=
